<?xml version="1.0" standalone="no"?>
<!DOCTYPE svg PUBLIC "-//W3C//DTD SVG 20010904//EN"
 "http://www.w3.org/TR/2001/REC-SVG-20010904/DTD/svg10.dtd">
<svg version="1.0" xmlns="http://www.w3.org/2000/svg"
 width="300.000000pt" height="400.000000pt" viewBox="0 0 300.000000 400.000000"
 preserveAspectRatio="xMidYMid meet">
<metadata>
Created by potrace 1.10, written by Peter Selinger 2001-2011
</metadata>
<g transform="translate(0.000000,400.000000) scale(0.100000,-0.100000)"
fill="#fff" stroke="none">
<path d="M1351 3829 c-13 -5 -56 -14 -94 -19 -39 -6 -75 -14 -81 -19 -6 -5
-35 -12 -63 -16 -29 -4 -53 -11 -53 -16 0 -5 -11 -9 -25 -9 -23 0 -54 -25
-202 -163 -61 -58 -129 -186 -139 -262 -4 -27 -11 -53 -17 -56 -13 -9 -18 -88
-7 -124 7 -25 23 -118 35 -200 4 -35 8 -31 14 15 8 60 26 53 28 -10 1 -27 9
-76 19 -108 9 -31 18 -73 20 -93 1 -20 9 -50 18 -67 9 -17 16 -44 16 -60 0
-26 -3 -29 -25 -24 -39 7 -48 -31 -40 -173 8 -147 30 -247 61 -276 28 -27 91
-30 109 -6 14 20 25 22 25 5 0 -6 15 -61 34 -122 29 -95 35 -136 45 -283 11
-164 11 -173 -7 -191 -11 -11 -31 -43 -44 -73 -22 -47 -33 -83 -54 -186 -3
-16 -12 -23 -27 -23 -13 0 -69 -18 -125 -40 -55 -22 -105 -40 -110 -40 -6 0
-63 -21 -129 -46 -65 -26 -143 -55 -173 -65 -30 -10 -113 -39 -185 -64 -72
-26 -140 -49 -152 -52 -13 -3 -23 -12 -23 -21 0 -8 3 -12 7 -9 3 4 11 0 17 -8
8 -10 15 -12 26 -5 13 9 13 11 0 20 -12 8 -11 10 8 10 13 0 20 -4 17 -10 -3
-6 1 -7 9 -4 9 3 13 10 10 15 -3 5 5 9 18 9 42 1 244 66 271 88 8 7 25 14 36
15 12 1 21 4 21 7 0 8 62 30 83 30 9 0 17 4 17 10 0 11 47 26 68 21 8 -1 22 5
31 13 10 9 31 18 47 19 16 2 38 8 49 14 11 6 28 9 39 7 11 -1 20 5 23 16 3 10
17 23 32 28 14 6 35 13 45 18 11 4 17 4 14 -2 -3 -5 -3 -27 1 -49 l7 -40 8 48
c6 37 13 51 31 59 19 8 23 17 21 47 -5 65 6 64 35 -4 41 -94 96 -173 143 -203
23 -15 43 -30 44 -34 2 -5 10 -8 18 -8 9 0 12 -4 9 -10 -3 -5 3 -10 14 -10 12
0 21 -4 21 -10 0 -5 7 -10 15 -10 27 0 15 14 -45 55 -33 22 -60 43 -60 47 0 5
-6 8 -12 8 -7 0 -18 10 -24 23 -6 12 -23 45 -37 73 -23 45 -27 66 -32 182 -4
109 -3 136 10 155 13 21 14 41 5 143 -6 65 -12 145 -15 177 -6 81 -67 277 -86
277 -9 0 -47 123 -59 197 -25 146 0 487 38 525 6 6 12 20 12 31 0 32 -46 -32
-54 -75 -4 -21 -14 -42 -24 -47 -12 -7 -13 -10 -3 -11 9 0 11 -6 6 -17 -4 -10
-7 -38 -6 -63 1 -42 0 -44 -14 -26 -8 11 -15 28 -15 37 0 10 -4 21 -10 24 -5
3 -10 24 -10 45 0 21 -4 50 -10 65 -5 14 -14 55 -20 92 -8 51 -18 73 -39 95
-42 43 -57 167 -29 248 7 19 11 39 10 43 -5 18 21 91 39 110 10 11 19 29 19
38 0 41 225 228 275 229 19 1 19 1 1 15 -17 13 -15 14 20 20 22 3 54 10 72 15
19 5 40 6 47 4 8 -3 22 0 32 6 16 10 16 11 1 6 -10 -3 -20 -1 -23 4 -8 12 18
12 67 1 21 -5 36 -5 33 -1 -3 4 50 8 118 9 105 0 134 -3 207 -26 124 -38 161
-54 202 -91 36 -32 88 -118 88 -145 0 -20 36 -51 45 -38 3 6 -1 11 -9 11 -19
0 -20 5 -6 29 22 42 -30 126 -118 193 -70 53 -206 98 -327 108 -55 5 -109 11
-120 14 -11 3 -31 1 -44 -5z m-508 -1261 c12 -10 17 -32 18 -93 1 -44 5 -84 8
-90 3 -5 7 -19 8 -30 6 -73 22 -138 39 -156 19 -21 19 -21 -5 -40 -26 -21 -53
-18 -83 9 -20 17 -24 47 -6 58 8 5 7 10 -4 18 -8 6 -20 21 -26 33 -13 24 -14
150 -2 158 4 3 11 21 14 40 4 19 12 35 18 35 9 0 9 3 0 12 -16 16 -21 8 -30
-43 l-8 -44 -7 33 c-4 19 -2 42 4 54 6 11 8 26 5 33 -10 26 27 35 57 13z"/>
<path d="M2000 3520 c0 -5 6 -10 14 -10 8 0 18 -4 21 -10 3 -5 0 -7 -8 -4 -8
3 -17 -3 -21 -13 -4 -10 -2 -19 3 -21 6 -2 8 -9 4 -15 -4 -8 -1 -7 9 1 13 11
21 8 49 -15 58 -49 79 -73 86 -101 3 -14 16 -34 27 -44 12 -9 17 -17 12 -18
-4 0 2 -9 15 -20 20 -16 21 -19 7 -20 -20 0 -22 -8 -8 -30 9 -13 10 -13 10 0
1 12 3 11 11 -2 18 -31 27 -20 27 33 0 38 -5 53 -19 62 -11 7 -19 20 -19 29 0
10 -7 18 -15 18 -13 0 -14 4 -5 20 6 12 7 20 1 20 -17 0 -70 51 -65 63 4 11
-21 30 -91 69 -35 20 -45 22 -45 8z"/>
<path d="M1626 3286 c6 -17 4 -18 -22 -12 -54 14 -110 18 -94 7 8 -5 18 -8 22
-5 4 3 21 -2 38 -11 17 -9 36 -13 42 -9 7 5 8 3 3 -6 -5 -8 -3 -11 6 -8 8 3
13 12 11 19 -2 8 0 10 5 6 4 -5 8 -14 8 -19 0 -6 5 -13 11 -15 20 -7 11 26
-13 49 -21 19 -23 20 -17 4z"/>
<path d="M1206 3243 c23 -26 46 -44 50 -40 4 3 -1 9 -10 13 -9 3 -16 10 -16
14 0 5 13 3 30 -3 21 -8 33 -8 40 -1 7 7 -8 16 -50 29 -34 10 -63 22 -66 27
-3 4 -9 8 -14 8 -4 0 12 -21 36 -47z"/>
<path d="M1688 3275 c-10 -10 37 -55 57 -55 16 0 16 3 -5 25 -12 13 -26 22
-31 20 -4 -3 -9 0 -11 6 -2 5 -6 7 -10 4z"/>
<path d="M1356 3261 c-3 -5 -16 -7 -29 -4 -17 5 -20 3 -10 -7 6 -7 9 -20 6
-29 -4 -13 -1 -12 11 3 13 16 19 17 47 7 44 -15 48 -14 21 8 -15 13 -18 21
-10 24 7 3 3 6 -9 6 -12 1 -24 -3 -27 -8z"/>
<path d="M2220 3170 c-9 -6 -8 -10 5 -17 13 -8 15 -12 5 -18 -9 -6 -6 -11 11
-21 24 -13 24 -13 2 -14 -12 0 -25 -4 -28 -10 -3 -6 4 -10 16 -10 22 0 22 0 3
-15 -19 -14 -19 -14 1 -15 14 0 16 -3 7 -12 -8 -8 -9 -15 -1 -25 9 -10 6 -13
-14 -13 -21 0 -25 -4 -20 -17 4 -11 8 -12 11 -5 6 18 19 15 24 -6 5 -19 -6
-34 -37 -46 -19 -7 -19 -8 -2 -17 14 -8 16 -14 6 -25 -9 -11 -8 -14 5 -14 9 0
16 -7 16 -15 0 -8 -6 -15 -14 -15 -9 0 -14 -14 -14 -46 -2 -86 -24 -71 -47 32
-11 51 -25 85 -41 100 -32 33 -49 30 -25 -3 22 -30 43 -135 60 -298 15 -138
14 -186 -9 -294 -26 -121 -25 -137 4 -156 32 -21 71 -10 101 29 38 49 47 83
56 211 12 168 -6 222 -72 217 -22 -2 -27 1 -23 13 4 8 11 15 18 15 7 0 7 3 -2
8 -10 7 -8 19 8 58 20 47 26 83 35 219 7 105 12 160 15 170 8 30 -35 70 -60
55z m40 -559 c0 -5 -5 -11 -12 -13 -8 -3 -4 -12 10 -26 17 -17 22 -33 21 -74
l0 -53 -19 40 c-23 49 -25 36 -5 -30 20 -65 11 -149 -18 -170 -11 -8 -24 -12
-29 -9 -4 3 -8 0 -8 -5 0 -6 11 -11 25 -11 43 0 25 -49 -25 -70 -26 -11 -34
-11 -46 2 -13 12 -13 19 0 56 8 23 16 68 17 99 1 32 4 62 7 67 3 6 6 50 6 98
1 67 5 91 16 98 19 12 60 13 60 1z"/>
<path d="M2206 2377 c3 -8 0 -26 -5 -40 -8 -21 -8 -27 4 -27 7 0 17 5 20 10 9
14 -4 70 -15 70 -5 0 -7 -6 -4 -13z"/>
<path d="M1010 3153 c-22 -9 -42 -32 -38 -44 2 -5 16 4 33 21 30 31 30 32 5
23z"/>
<path d="M1934 2835 c-10 -8 -14 -15 -8 -15 5 0 14 4 20 10 6 6 10 3 11 -10 1
-16 -3 -18 -30 -13 -18 3 -38 11 -46 17 -11 8 -13 8 -8 -1 5 -8 -15 -10 -75
-8 -45 1 -90 0 -100 -3 -19 -4 -53 -62 -37 -62 5 0 9 5 9 12 0 6 3 9 6 5 4 -3
15 4 25 16 22 27 25 10 3 -21 -8 -12 -12 -27 -9 -32 3 -6 1 -10 -6 -10 -7 0
-10 -3 -6 -6 3 -4 25 3 49 15 30 14 74 22 141 27 53 4 95 10 91 13 -6 6 -8 6
-59 10 -26 2 -27 4 -10 10 11 5 33 4 49 0 16 -5 32 -7 34 -4 8 8 42 -15 42
-29 0 -15 28 -42 35 -34 11 11 -26 75 -59 101 -41 32 -37 31 -62 12z m-145
-46 c15 2 21 -1 17 -8 -4 -6 -16 -11 -27 -11 -10 0 -19 -5 -19 -11 0 -6 -6 -9
-12 -6 -7 2 -22 -3 -32 -12 -19 -16 -19 -15 -1 11 9 15 21 25 26 22 5 -3 6 3
2 12 -5 13 -3 15 8 8 8 -4 25 -7 38 -5z"/>
<path d="M1048 2775 c-27 -20 -48 -42 -48 -50 0 -17 12 -19 26 -5 12 12 27 13
179 8 85 -2 117 -7 138 -21 25 -16 26 -16 20 0 -6 16 -5 17 13 3 18 -14 18
-14 5 2 -7 10 -17 15 -22 12 -12 -7 -11 7 1 26 10 16 9 17 38 -30 18 -29 22
-32 22 -13 0 12 6 24 13 26 7 3 5 6 -5 6 -9 1 -23 9 -30 19 -26 37 -121 63
-102 29 5 -8 2 -8 -7 1 -16 15 -33 16 -23 1 4 -8 0 -8 -15 0 -12 7 -25 10 -30
7 -15 -10 -131 -15 -131 -6 0 4 6 11 13 13 6 3 8 6 2 6 -5 0 -31 -15 -57 -34z
m102 -5 c0 -11 -48 -25 -57 -16 -3 3 5 10 18 15 32 13 39 13 39 1z m192 -25
c-6 -12 -11 -14 -16 -6 -4 6 -16 11 -27 11 -11 0 -17 -4 -14 -10 3 -5 1 -10
-4 -10 -16 0 -13 16 5 31 12 10 20 10 34 1 17 -10 18 -9 13 6 -5 13 -3 14 7 5
8 -7 9 -16 2 -28z"/>
<path d="M1691 2677 c-55 -28 -78 -59 -86 -117 l-6 -45 20 25 c11 13 19 27 19
30 -1 3 3 16 9 30 19 45 71 79 138 91 l40 6 -45 1 c-29 1 -61 -7 -89 -21z"/>
<path d="M1895 2671 c28 -10 59 -21 70 -25 16 -6 15 -4 -5 12 -24 20 -65 33
-99 31 -9 0 7 -8 34 -18z"/>
<path d="M1271 2671 c40 -4 66 -14 94 -35 28 -21 37 -25 32 -12 -11 28 10 9
43 -39 17 -25 30 -58 31 -77 l1 -33 10 37 c8 32 7 43 -11 71 -28 45 -57 71
-74 64 -8 -3 -27 3 -43 14 -21 13 -45 18 -84 17 l-55 -1 56 -6z"/>
<path d="M1145 2657 c-45 -18 -77 -38 -71 -44 3 -3 17 2 30 11 44 28 51 17 8
-13 -55 -40 -60 -51 -23 -51 21 0 31 -5 31 -15 0 -17 16 -20 25 -6 3 6 -4 15
-15 21 -27 15 -25 21 15 48 33 21 35 21 35 4 0 -29 35 -55 64 -48 31 8 47 35
39 65 -5 22 -10 23 -65 19 -52 -4 -57 -3 -36 8 29 17 4 17 -37 1z"/>
<path d="M1756 2645 c-40 -14 -95 -60 -84 -70 3 -3 30 -8 59 -11 40 -4 50 -3
39 5 -8 6 -29 11 -47 11 -41 0 -35 20 12 43 30 14 35 15 35 2 0 -19 36 -55 55
-55 22 0 57 39 51 56 -7 19 6 18 43 -3 30 -18 52 -46 27 -37 -7 3 -32 -4 -57
-16 l-44 -20 40 6 c22 3 41 10 43 14 2 5 9 7 15 5 19 -8 38 10 31 29 -18 48
-137 70 -218 41z"/>
<path d="M1291 2636 c13 -13 82 -46 86 -42 7 7 -58 46 -76 46 -8 0 -12 -2 -10
-4z"/>
<path d="M1377 2584 c-3 -4 -19 -8 -35 -10 -15 -2 -39 -8 -52 -14 -20 -8 -15
-9 28 -5 60 7 82 13 82 26 0 10 -14 12 -23 3z"/>
<path d="M1405 2304 c-30 -47 -24 -83 20 -111 32 -21 55 -17 40 7 -11 18 10
10 28 -10 24 -29 76 -26 106 5 27 29 53 34 27 6 -17 -19 -17 -19 26 -4 60 21
71 31 64 67 -8 37 -33 66 -59 66 -16 0 -14 -4 13 -30 21 -20 30 -37 28 -52 -3
-20 -8 -23 -40 -20 -44 3 -78 -12 -78 -34 0 -12 -7 -14 -32 -8 -18 3 -43 13
-55 21 -12 8 -36 13 -55 11 -25 -2 -33 1 -36 16 -3 11 0 16 7 12 14 -9 14 7 0
21 -14 14 27 44 49 36 10 -4 13 -1 10 8 -8 23 -46 18 -63 -7z"/>
<path d="M2093 2170 c-15 -34 -63 -247 -69 -301 -2 -24 -6 -69 -8 -99 -2 -30
-6 -69 -11 -86 -5 -22 -2 -41 10 -65 24 -46 15 -143 -23 -236 -16 -39 -26 -76
-23 -82 7 -11 51 77 73 147 15 49 28 55 28 12 0 -16 5 -30 10 -30 6 0 10 -12
10 -28 0 -29 53 -97 69 -88 4 3 13 -6 20 -20 6 -14 16 -22 21 -19 6 4 8 11 5
16 -4 5 -5 9 -3 9 12 0 116 -44 128 -54 8 -8 27 -16 42 -20 21 -5 26 -10 21
-24 -6 -16 -5 -16 13 -1 20 16 68 24 59 10 -2 -5 7 -7 22 -5 15 1 46 -4 70
-12 24 -8 48 -12 53 -9 6 3 10 1 10 -6 0 -7 10 -9 30 -5 17 3 30 2 30 -3 0 -5
21 -14 48 -21 26 -7 81 -24 122 -37 41 -14 82 -27 90 -30 13 -4 13 -5 0 -13
-21 -14 -3 -12 23 2 20 10 21 9 9 -5 -11 -13 -10 -15 7 -10 35 9 23 29 -26 48
-27 9 -87 32 -135 51 -110 43 -217 70 -326 85 -48 6 -96 16 -107 22 -11 6 -69
27 -129 47 l-108 35 -37 90 c-21 50 -48 116 -60 148 l-23 57 17 153 c9 83 28
200 42 259 25 106 28 171 6 118z"/>
<path d="M1518 2108 c20 -5 50 -5 75 0 39 8 36 9 -33 9 -63 0 -69 -1 -42 -9z"/>
<path d="M1776 2065 c-3 -8 -12 -15 -21 -15 -18 0 -21 -20 -2 -20 6 0 0 -8
-15 -18 -16 -9 -28 -23 -28 -32 1 -12 3 -11 11 3 5 9 16 17 23 17 7 0 22 12
35 26 13 15 28 23 37 20 20 -8 8 11 -16 24 -13 7 -19 6 -24 -5z"/>
<path d="M1274 2049 c-19 -22 -19 -22 8 -15 22 5 35 0 64 -26 34 -30 37 -31
32 -10 -7 24 -15 24 235 24 53 1 100 5 104 11 4 6 -55 8 -166 5 -151 -4 -171
-3 -171 11 0 11 -3 12 -8 4 -8 -13 -52 -6 -52 8 0 17 -27 9 -46 -12z"/>
<path d="M1658 1967 c-38 -35 -128 -43 -180 -16 -22 11 -45 18 -51 16 -7 -2
11 -15 38 -29 40 -21 61 -25 104 -21 58 4 121 35 121 59 0 19 -3 18 -32 -9z"/>
<path d="M1485 1621 l-40 -7 52 -5 c40 -3 49 -1 41 9 -6 6 -11 11 -12 11 0 -1
-19 -5 -41 -8z"/>
<path d="M2200 1248 c0 -10 4 -18 9 -18 4 0 7 -16 4 -35 -4 -36 10 -48 21 -18
4 9 1 20 -6 25 -10 8 -10 11 0 15 6 2 12 9 12 14 0 6 -4 8 -9 4 -6 -3 -14 3
-20 12 -10 17 -10 17 -11 1z"/>
<path d="M1949 1204 c-7 -16 -11 -46 -11 -67 1 -21 -2 -36 -6 -33 -4 2 -5 -18
-3 -46 4 -58 8 -58 16 1 3 24 8 47 11 52 9 15 59 10 80 -8 10 -10 28 -25 39
-33 17 -13 18 -13 11 0 -4 8 -1 7 7 -3 11 -13 16 -14 20 -4 6 17 -88 87 -117
87 -12 0 -27 -5 -33 -11 -20 -20 -24 8 -8 47 8 20 13 39 10 42 -2 3 -10 -8
-16 -24z"/>
<path d="M2220 1129 c6 -11 10 -32 9 -47 -3 -38 22 -127 31 -112 6 9 9 9 13
-1 4 -10 6 -9 6 4 1 10 -6 17 -16 17 -15 0 -16 2 -3 10 8 5 10 10 4 10 -7 0
-15 12 -18 26 -5 20 -1 33 16 52 23 24 23 24 2 18 -17 -5 -23 -2 -28 19 -4 14
-11 25 -17 25 -6 0 -6 -7 1 -21z"/>
<path d="M989 1116 c-30 -20 -38 -34 -49 -83 -7 -32 -14 -70 -16 -84 -2 -14
-8 -48 -14 -74 -6 -26 -9 -49 -8 -50 3 -3 172 -81 203 -95 91 -39 120 -50 139
-49 13 0 5 5 -19 13 -22 7 -68 27 -101 44 -34 17 -64 28 -68 25 -3 -4 -6 -1
-6 5 0 7 -3 11 -7 10 -5 -1 -32 9 -60 21 -56 25 -60 32 -43 91 6 19 12 59 15
88 3 29 10 62 16 74 11 21 12 21 26 2 14 -18 15 -18 8 4 -4 13 -2 29 5 37 17
20 57 19 69 -2 6 -10 11 -13 11 -7 0 13 -42 54 -56 54 -5 0 -25 -11 -45 -24z"/>
<path d="M490 1070 c-6 -4 11 -10 39 -13 42 -5 70 -19 154 -77 56 -38 123 -86
150 -106 26 -20 47 -31 47 -25 0 6 -19 23 -42 37 -24 15 -61 42 -83 60 -49 39
-136 98 -161 109 -34 14 -92 22 -104 15z"/>
<path d="M2118 1036 c-5 -23 -3 -25 21 -20 20 4 22 3 11 -5 -18 -13 -11 -20
13 -12 16 6 15 10 -11 34 l-29 28 -5 -25z"/>
<path d="M1142 1008 c-16 -16 -15 -21 7 -46 10 -12 30 -22 45 -22 21 0 26 5
26 24 0 37 -54 68 -78 44z m52 -23 c7 -20 -21 -32 -37 -16 -9 9 -8 14 3 21 21
13 27 12 34 -5z"/>
<path d="M1991 971 c-15 -12 -21 -23 -16 -31 5 -9 4 -11 -3 -6 -6 4 -19 -2
-28 -13 -20 -23 -72 -172 -66 -189 2 -7 0 -12 -5 -12 -5 0 -14 -15 -21 -34 -9
-25 -20 -35 -42 -40 -17 -3 -30 -10 -30 -16 0 -11 22 -9 31 2 3 5 17 9 31 10
15 1 25 5 22 9 -2 4 4 14 13 21 32 24 59 60 43 56 -8 -2 -18 -7 -22 -13 -4 -5
-8 2 -8 17 0 15 7 34 16 42 12 12 12 16 2 16 -10 0 -9 3 2 10 8 5 11 10 5 10
-5 0 -3 5 5 10 13 9 13 10 0 10 -12 0 -12 2 -2 9 11 7 17 21 21 52 1 3 19 15
41 28 22 12 40 27 40 33 0 7 -4 7 -13 -1 -8 -6 -17 -8 -20 -5 -3 4 4 15 16 25
29 24 19 24 -12 0z"/>
<path d="M2176 975 c3 -8 19 -21 34 -29 23 -11 28 -11 23 0 -3 7 -13 16 -24
19 -10 4 -19 11 -19 16 0 5 -4 9 -10 9 -5 0 -7 -7 -4 -15z"/>
<path d="M1270 950 c-22 -6 -23 -8 -7 -15 9 -4 24 -5 32 -1 22 8 49 -23 34
-40 -10 -12 -8 -13 7 -7 17 6 17 5 5 -10 -12 -15 -12 -17 4 -11 13 5 16 4 11
-4 -4 -7 -2 -12 4 -12 6 0 8 -4 5 -10 -3 -5 0 -10 7 -10 10 0 9 -3 -2 -10 -12
-8 -12 -10 3 -16 9 -3 14 -10 11 -15 -3 -5 2 -6 10 -3 9 3 16 1 16 -4 0 -6 9
-14 20 -17 11 -4 18 -10 15 -15 -3 -4 5 -6 17 -2 14 3 19 2 14 -6 -4 -7 -1
-12 6 -12 9 0 9 -3 -2 -10 -11 -8 -7 -9 14 -4 20 5 27 4 22 -4 -4 -7 4 -14 20
-18 l27 -7 -24 -14 c-24 -13 -24 -13 6 -8 17 3 24 2 17 -1 -6 -3 -10 -10 -6
-15 3 -5 12 -2 21 6 12 12 18 13 29 4 12 -10 13 -9 8 6 -5 13 -4 16 4 11 7 -4
12 -2 12 4 0 6 4 8 10 5 6 -4 7 1 3 12 -6 15 -5 16 9 5 14 -11 16 -10 11 6 -6
24 16 40 29 21 6 -10 7 -7 3 10 -5 16 -4 21 4 17 6 -4 11 -2 11 4 0 6 5 8 10
5 6 -3 10 0 10 7 0 16 36 49 44 41 3 -4 6 2 6 12 0 10 3 15 7 12 6 -6 53 54
53 68 0 7 -50 -38 -185 -167 -67 -63 -71 -66 -83 -47 -7 10 -49 47 -95 80 -45
34 -86 69 -91 78 -5 9 -16 22 -23 29 -7 7 -13 21 -13 30 0 37 -35 56 -80 42z"/>
<path d="M1848 845 c-27 -36 -21 -48 8 -18 14 14 22 29 17 33 -4 5 -16 -2 -25
-15z"/>
<path d="M2042 773 c-7 -6 -8 -14 -3 -18 5 -3 11 -1 13 5 1 5 15 11 30 12 15
1 24 6 22 10 -7 11 -49 6 -62 -9z"/>
<path d="M2010 762 c0 -7 -11 -12 -24 -12 -13 0 -29 -7 -36 -15 -8 -9 -9 -15
-2 -15 6 0 14 5 17 10 3 6 15 10 25 10 20 0 36 17 26 27 -3 4 -6 1 -6 -5z"/>
<path d="M1320 658 c0 -9 13 -21 30 -27 18 -6 30 -6 30 0 0 5 -5 9 -11 9 -5 0
-7 4 -4 10 4 6 -1 7 -10 3 -10 -3 -21 0 -26 8 -7 11 -9 11 -9 -3z"/>
<path d="M1685 615 c-41 -20 -103 -47 -140 -59 -15 -5 -16 -9 -6 -15 9 -6 11
-16 6 -32 l-8 -24 -9 28 c-11 31 -15 32 -41 12 -23 -16 -19 -43 8 -61 16 -11
25 -11 45 -1 20 11 25 20 24 50 -1 30 2 37 17 37 11 0 19 5 19 10 0 6 8 10 18
11 29 1 138 55 122 60 -8 3 -33 -4 -55 -16z"/>
<path d="M1360 360 c13 -9 13 -10 0 -10 -13 0 -13 -1 0 -10 8 -5 10 -10 4 -10
-8 0 -10 -14 -8 -37 2 -22 -2 -40 -9 -45 -8 -5 -8 -8 -1 -8 8 0 10 -13 7 -35
-3 -21 0 -35 6 -35 6 0 11 11 11 25 0 14 6 25 13 25 9 0 9 2 -1 9 -10 6 -12
26 -8 74 5 59 3 67 -12 67 -15 0 -15 -2 -2 -10z"/>
<path d="M1608 213 c17 -2 47 -2 65 0 17 2 3 4 -33 4 -36 0 -50 -2 -32 -4z"/>
<path d="M1548 103 c23 -2 61 -2 85 0 23 2 4 4 -43 4 -47 0 -66 -2 -42 -4z"/>
<path d="M1858 53 c17 -2 47 -2 65 0 17 2 3 4 -33 4 -36 0 -50 -2 -32 -4z"/>
</g>
</svg>
